 http://i26.photobucket.com/albums/c119/manojb/good.gif 
http://i26.photobucket.com/albums/c119/manojb/vlcsnap-2013-02-09-01h16m44s185.png 
http://i26.photobucket.com/albums/c119/manojb/vlcsnap-2013-02-09-01h16m56s49.png 
http://i26.photobucket.com/albums/c119/manojb/vlcsnap-2013-02-09-01h17m05s141.png 
http://i26.photobucket.com/albums/c119/manojb/vlcsnap-2013-02-09-01h17m26s99.png

Media Info - 
General
Complete name                  : Special 26 2013 SCamRip [TMB].avi
Format                         : AVI
Format/Info                    : Audio Video Interleave
File size                      : 721 MiB
Duration                       : 2h 16mn
Overall bit rate               : 741 Kbps

Video
ID                             : 0
Format                         : MPEG-4 Visual
Format profile                 : Advanced Simple@L1
Format settings, BVOP          : 2
Format settings, QPel          : No
Format settings, GMC           : No warppoints
Format settings, Matrix        : Default (H.263)
Codec ID                       : DIVX
Codec ID/Info                  : Project Mayo
Codec ID/Hint                  : DivX 4
Duration                       : 2h 16mn
Bit rate                       : 600 Kbps
Width                          : 352 pixels
Height                         : 176 pixels
Display aspect ratio           : 2.000
Frame rate                     : 25.000 fps
Color space                    : YUV
Chroma subsampling             : 4:2:0
Bit depth                      : 8 bits
Scan type                      : Progressive
Compression mode               : Lossy
Bits/(Pixel*Frame)             : 0.387
Stream size                    : 584 MiB (81%)
Writing library                : Lavc54.59.100

Audio
ID                             : 1
Format                         : MPEG Audio
Format version                 : Version 1
Format profile                 : Layer 3
Codec ID                       : 55
Codec ID/Hint                  : MP3
Duration                       : 2h 16mn
Source duration                : 2h 16mn
Bit rate mode                  : Constant
Bit rate                       : 128 Kbps
Channel(s)                     : 2 channels
Sampling rate                  : 48.0 KHz
Compression mode               : Lossy
Stream size                    : 125 MiB (17%)
Alignment                      : Aligned on interleaves
Interleave, duration           : 24 ms (0.60 video frame)
Writing library                : LAME3.98.4
Source : ICTV - Thanks

Ripper : Manojvb

Extreme 24x7 Seeding

Note : This is CAMRip, if you are looking for better print then wait for screener ;)


Enjoy TMB Release!